<svg width="25" height="25" viewBox="0 0 25 25" fill="none" xmlns="http://www.w3.org/2000/svg">
	<path
		d="M13.1623 20.2382C12.8516 20.4018 12.5034 20.4807 12.1526 20.4671C11.8018 20.4535 11.4608 20.3477 11.1638 20.1605L2.85932 14.9641C2.70892 14.8709 2.58592 14.7396 2.50287 14.5834C2.41981 14.4272 2.37967 14.2518 2.38654 14.075C2.39341 13.8983 2.44705 13.7265 2.54197 13.5772C2.6369 13.428 2.76973 13.3066 2.92689 13.2254L11.6096 8.68918C11.9202 8.52558 12.2685 8.44663 12.6193 8.46027C12.9701 8.4739 13.3111 8.57964 13.6081 8.76685L21.9126 13.9633C22.063 14.0564 22.186 14.1878 22.269 14.344C22.3521 14.5001 22.3922 14.6756 22.3853 14.8523C22.3785 15.0291 22.3248 15.2009 22.2299 15.3501C22.135 15.4994 22.0022 15.6208 21.845 15.702L13.1623 20.2382Z"
		fill="transparent"
		stroke="currentColor"
		stroke-linecap="round"
		stroke-linejoin="round"
	/>
	<path
		d="M13.3244 16.2415C13.0137 16.4051 12.6655 16.484 12.3147 16.4704C11.9639 16.4568 11.6229 16.351 11.3259 16.1638L3.02143 10.9674C2.87103 10.8742 2.74803 10.7429 2.66498 10.5867C2.58192 10.4305 2.54178 10.2551 2.54865 10.0783C2.55552 9.90158 2.60915 9.7298 2.70408 9.58054C2.79901 9.43127 2.93183 9.30986 3.089 9.22868L11.7717 4.69247C12.0824 4.52888 12.4306 4.44993 12.7814 4.46356C13.1322 4.4772 13.4732 4.58294 13.7702 4.77015L22.0747 9.96659C22.2251 10.0597 22.3481 10.1911 22.4311 10.3473C22.5142 10.5034 22.5543 10.6789 22.5474 10.8556C22.5406 11.0324 22.4869 11.2042 22.392 11.3534C22.2971 11.5027 22.1643 11.6241 22.0071 11.7053L13.3244 16.2415Z"
		fill="currentColor"
		stroke="currentColor"
		stroke-linecap="round"
		stroke-linejoin="round"
	/>
</svg>